<svg xmlns:xlink="http://www.w3.org/1999/xlink" width="6.041ex" height="2.176ex" style="font-size: 15px; vertical-align: -0.338ex;" viewBox="0 -791.3 2601.1 936.9" role="img" focusable="false" xmlns="http://www.w3.org/2000/svg">
<defs>
<path stroke-width="1" id="E1-MJMAINB-31" d="M481 0L294 3Q136 3 109 0H96V62H227V304Q227 546 225 546Q169 529 97 529H80V591H97Q231 591 308 647L319 655H333Q355 655 359 644Q361 640 361 351V62H494V0H481Z"></path>
<path stroke-width="1" id="E1-MJMAINB-223C" d="M64 155Q64 210 84 262T150 353T257 391Q300 391 341 371T417 321T484 264T557 215T637 194Q702 194 745 244T788 367Q796 391 808 391Q815 391 821 381T828 353V342Q828 252 776 181T637 109Q594 109 552 129T476 179T409 236T336 285T256 306Q193 306 149 258T105 132Q98 109 86 109Q76 109 70 122T64 155Z"></path>
<path stroke-width="1" id="E1-MJMAINB-34" d="M531 0Q510 3 381 3Q238 3 214 0H201V62H313V155H32V217L205 434Q342 606 362 630T387 655L391 656Q395 656 401 656T414 656H427Q447 656 451 645Q453 641 453 429V217H542V155H453V62H542V0H531ZM324 217V494L103 218L213 217H324Z"></path>
</defs>
<g stroke="currentColor" fill="currentColor" stroke-width="0" transform="matrix(1 0 0 -1 0 0)">
 <use xlink:href="#E1-MJMAINB-31" x="0" y="0"></use>
 <use xlink:href="#E1-MJMAINB-223C" x="853" y="0"></use>
 <use xlink:href="#E1-MJMAINB-34" x="2025" y="0"></use>
</g>
</svg>